<?xml version="1.0" encoding="utf-8"?>
<!-- Generator: Adobe Illustrator 19.2.1, SVG Export Plug-In . SVG Version: 6.00 Build 0)  -->
<!DOCTYPE svg PUBLIC "-//W3C//DTD SVG 1.1//EN" "http://www.w3.org/Graphics/SVG/1.1/DTD/svg11.dtd">
<svg version="1.1" id="Layer_1" xmlns="http://www.w3.org/2000/svg" xmlns:xlink="http://www.w3.org/1999/xlink" x="0px" y="0px"
	 viewBox="0 0 22 22" style="enable-background:new 0 0 22 22;" xml:space="preserve">
<style type="text/css">
	.st0{fill:none;}
	.st1{fill:#ADADB2;}
</style>
<g id="Layer_264">
	<g>
		<rect class="st0" width="22" height="22"/>
		<g>
			<path class="st1" d="M14.7,13.4h0.6c0.1,0,0.3-0.1,0.3-0.3V11h2.1c0.1,0,0.3-0.1,0.3-0.3v-0.6c0-0.1-0.1-0.3-0.3-0.3h-2.1v-2
				c0-0.1-0.1-0.3-0.3-0.3h-0.6c-0.1,0-0.3,0.1-0.3,0.3v2.1h-2.1c-0.1,0-0.3,0.1-0.3,0.3v0.6c0,0.1,0.1,0.3,0.3,0.3h2.1v2.1
				C14.3,13.2,14.5,13.4,14.7,13.4z"/>
			<path class="st1" d="M6.5,17c0.5,0.1,1.1,0.2,1.7,0.2c0.5,0,1-0.1,1.5-0.2c1.5-0.4,2.4-1.5,2.4-2.7s-0.4-1.9-1.4-2.6
				c-0.5-0.3-0.8-0.8-0.8-0.9c0-0.3,0-0.4,0.6-0.8c0.7-0.6,1.1-1.3,1.1-2.2c0-0.7-0.2-1.4-0.6-1.8h0.3c0,0,0.1,0,0.2,0l0.8-0.6
				c0.1-0.1,0.1-0.2,0.1-0.3c0-0.1-0.1-0.2-0.3-0.2H8.4C8,4.8,7.6,4.9,7.2,5C5.9,5.5,5,6.6,5,7.8c0,1.7,1.3,2.9,3,2.9
				c0,0.1,0,0.3,0,0.4c0,0.3,0,0.5,0.2,0.7l0,0c-1.6,0-3.1,0.8-3.7,2c-0.1,0.3-0.2,0.6-0.2,0.9c0,0.3,0.1,0.6,0.2,0.9
				C4.7,16.3,5.5,16.7,6.5,17z M6.8,7.7c-0.1-0.6,0-1.1,0.4-1.5C7.3,6,7.6,5.9,7.9,5.9l0,0c0.8,0,1.6,0.9,1.7,2
				c0.1,0.6,0,1.2-0.4,1.5C9.1,9.7,8.8,9.8,8.6,9.8l0,0l0,0C7.7,9.8,7,8.8,6.8,7.7z M8.3,12.7L8.3,12.7c0.3,0,0.6,0,0.8,0.1
				c0.1,0,0.2,0.1,0.2,0.2c0.6,0.4,1,0.6,1.1,1.1c0,0.1,0,0.2,0,0.3c0,1.1-0.8,1.6-2.4,1.6c-1.1,0-2-0.7-2-1.6
				C6,13.5,7.1,12.7,8.3,12.7z"/>
		</g>
	</g>
</g>
<g id="Layer_1_1_">
</g>
</svg>
