<?xml version="1.0" encoding="utf-8"?>
<!-- Generator: Adobe Illustrator 19.2.1, SVG Export Plug-In . SVG Version: 6.00 Build 0)  -->
<!DOCTYPE svg PUBLIC "-//W3C//DTD SVG 1.1//EN" "http://www.w3.org/Graphics/SVG/1.1/DTD/svg11.dtd">
<svg version="1.1" id="Layer_1" xmlns="http://www.w3.org/2000/svg" xmlns:xlink="http://www.w3.org/1999/xlink" x="0px" y="0px"
	 viewBox="0 0 22 22" style="enable-background:new 0 0 22 22;" xml:space="preserve">
<style type="text/css">
	.st0{fill:none;}
	.st1{fill:#ADADB2;}
</style>
<g id="Layer_286">
	<g>
		<rect class="st0" width="22" height="22"/>
		<g>
			<path class="st1" d="M17.5,5.7C17,6,16.4,6.3,15.7,6.4c-0.5-0.5-1.2-0.9-2.1-0.9c-1.6,0-2.8,1.2-2.8,2.8c0,0.2,0,0.4,0.1,0.6
				C8.6,8.8,6.5,7.7,5.1,6.1C4.9,6.5,4.7,7,4.7,7.5c0,1,0.5,1.8,1.2,2.3C5.5,9.8,5,9.6,4.7,9.4l0,0c0,1.3,1,2.5,2.2,2.7
				c-0.2,0-0.5,0.1-0.7,0.1s-0.4,0-0.5,0c0.4,1.1,1.4,1.9,2.7,1.9c-1,0.7-2.2,1.2-3.5,1.2c-0.2,0-0.5,0-0.7,0
				c1.2,0.8,2.8,1.2,4.3,1.2c5.2,0,8.1-4.2,8.1-7.9c0-0.1,0-0.2,0-0.4c0.6-0.4,1-0.9,1.4-1.4c-0.5,0.2-1.1,0.4-1.6,0.5
				C16.9,6.9,17.3,6.4,17.5,5.7z"/>
		</g>
	</g>
</g>
<g id="Layer_1_1_">
</g>
</svg>
