<?xml version="1.0" encoding="utf-8"?>
<!-- Generator: Adobe Illustrator 19.2.1, SVG Export Plug-In . SVG Version: 6.00 Build 0)  -->
<!DOCTYPE svg PUBLIC "-//W3C//DTD SVG 1.1//EN" "http://www.w3.org/Graphics/SVG/1.1/DTD/svg11.dtd">
<svg version="1.1" id="Layer_1" xmlns="http://www.w3.org/2000/svg" xmlns:xlink="http://www.w3.org/1999/xlink" x="0px" y="0px"
	 viewBox="0 0 22 22" style="enable-background:new 0 0 22 22;" xml:space="preserve">
<style type="text/css">
	.st0{fill:none;}
	.st1{fill:#ADADB2;}
</style>
<g id="Layer_255">
	<g>
		<rect class="st0" width="22" height="22"/>
		<g>
			<path class="st1" d="M15.2,4.1H6.8c-1.5,0-2.7,1.2-2.7,2.7v2.8v5.6c0,1.5,1.2,2.7,2.7,2.7h8.4c1.5,0,2.7-1.2,2.7-2.7V9.6V6.8
				C17.9,5.3,16.7,4.1,15.2,4.1z M16,5.7h0.3V6v2H14V5.7H16z M9,9.6c0.5-0.6,1.1-1,2-1s1.5,0.4,2,1c0.3,0.4,0.5,0.9,0.5,1.4
				c0,1.3-1.1,2.4-2.4,2.4s-2.5-1-2.5-2.4C8.6,10.5,8.8,10,9,9.6z M16.5,15.2c0,0.7-0.6,1.3-1.3,1.3H6.8c-0.7,0-1.3-0.6-1.3-1.3V9.6
				h2.1c-0.2,0.5-0.3,0.9-0.3,1.4c0,2.1,1.7,3.8,3.8,3.8s3.8-1.7,3.8-3.8c0-0.5-0.1-1-0.3-1.4h2.1v5.6
				C16.7,15.2,16.5,15.2,16.5,15.2z"/>
		</g>
	</g>
</g>
<g id="Layer_1_1_">
</g>
</svg>
